<svg xmlns="http://www.w3.org/2000/svg" viewBox="0 0 128.00 128.00" data-guides="{&quot;vertical&quot;:[],&quot;horizontal&quot;:[]}"><path fill="rgb(255, 255, 255)" visibility="hidden" x="-540" y="-540" rx="0" ry="0" width="1080" height="1080" id="tSvg88e547249a" title="Rectangle 1" fill-opacity="1" stroke="none" stroke-opacity="1" d="M-477 -477H603V603H-477Z" transform-origin="5540 5540"/><path fill="none" stroke="rgb(0, 0, 0)" fill-opacity="1" stroke-width="1" stroke-opacity="1" stroke-linecap="round" stroke-linejoin="round" id="tSvg20522283d4" title="Path 1" d="M63 121.74C30.5588 121.74 4.26 95.4412 4.26 63C4.26 30.5588 30.5588 4.26 63 4.26C95.4412 4.26 121.74 30.5588 121.74 63"/><path fill="none" stroke="rgb(0, 0, 0)" fill-opacity="1" stroke-width="1" stroke-opacity="1" stroke-linecap="round" stroke-linejoin="round" id="tSvg2c4b6a41f6" title="Path 2" d="M114.308 68.3163C116.6419 87.3224 105.8114 105.4973 87.9848 112.4897C70.1582 119.482 49.8592 113.5175 38.6487 97.9932C27.4382 82.4689 28.161 61.324 40.4054 46.6014C52.6498 31.8789 73.3088 27.3145 90.6163 35.5078"/><path fill="none" stroke="rgb(0, 0, 0)" fill-opacity="1" stroke-width="1" stroke-opacity="1" stroke-linecap="round" stroke-linejoin="round" id="tSvg12dad8830ca" title="Path 3" d="M114.0105 68.1058C108.3361 73.7409 99.8732 75.5013 92.4223 72.5964C84.9715 69.6915 79.9334 62.6674 79.5707 54.6786C79.208 46.6897 83.5888 39.238 90.7457 35.6698"/><path fill="none" stroke="rgb(0, 0, 0)" fill-opacity="1" stroke-width="1" stroke-opacity="1" stroke-linecap="round" stroke-linejoin="round" id="tSvg3df664ed3a" title="Path 4" d="M46.633 119.3097C26.3395 108.6558 14.9492 86.3816 18.1918 63.692C21.4343 41.0025 38.6077 22.8103 61.073 18.267C83.5382 13.7236 106.4312 23.8128 118.2357 43.4593"/><path fill="rgb(0, 0, 0)" stroke="rgb(0, 0, 0)" fill-opacity="1" stroke-width="0" stroke-opacity="1" id="tSvg18449e83e00" title="Path 5" d="M99.46 79.0733C101.8106 83.811 104.1611 88.5487 106.5116 93.2863C111.7434 94.0529 116.9752 94.8195 122.2069 95.586C118.4229 99.2867 114.6389 102.9874 110.8548 106.688C111.7454 111.9076 112.636 117.1272 113.5266 122.3467C108.8378 119.8966 104.1489 117.4464 99.46 114.9962C94.7712 117.4464 90.0823 119.8966 85.3934 122.3467C86.2718 117.1272 87.1502 111.9076 88.0286 106.688C84.2568 102.9874 80.485 99.2867 76.7131 95.586C81.9449 94.8195 87.1767 94.0529 92.4084 93.2863C94.759 88.5487 97.1095 83.811 99.46 79.0733Z"/><defs/></svg>